<svg width="18" height="20" viewBox="0 0 18 20" fill="none" xmlns="http://www.w3.org/2000/svg">
<path d="M17.5348 5.38727L17.5342 5.37186C17.5255 5.17975 17.5197 4.97635 17.5162 4.75022C17.4999 3.64746 16.6233 2.73529 15.5204 2.6738C13.2209 2.54532 11.442 1.7955 9.92206 0.314179L9.90909 0.301819C9.41318 -0.152741 8.66534 -0.152588 8.16974 0.301666L8.15661 0.314179C6.63668 1.7955 4.85781 2.54532 2.55831 2.6738C1.45541 2.73529 0.578789 3.64746 0.562462 4.75037C0.559105 4.97513 0.553155 5.17838 0.544457 5.37186L0.543541 5.40802C0.498833 7.75284 0.443291 10.6709 1.41955 13.3199C1.95635 14.7765 2.76919 16.0426 3.83563 17.0833C5.05038 18.2686 6.64126 19.2096 8.56448 19.8802C8.62704 19.902 8.69189 19.9197 8.75796 19.9329C8.85135 19.9516 8.94534 19.9609 9.03934 19.9609C9.13333 19.9609 9.22748 19.9516 9.32071 19.9329C9.38678 19.9197 9.45209 19.9019 9.51526 19.8799C11.4359 19.2082 13.0251 18.2668 14.2386 17.0816C15.3046 16.0405 16.1176 14.7739 16.6548 13.3171C17.6348 10.6603 17.5794 7.73652 17.5348 5.38727ZM10.6044 10.6076L10.5907 12.5197C10.5893 13.3788 9.89017 14.0772 9.03094 14.0772C8.17096 14.0772 7.47134 13.3775 7.47134 12.5176V12.5133L7.48492 10.6162C6.79705 10.1209 6.38263 9.3245 6.38263 8.46115C6.38263 6.99646 7.57418 5.80475 9.03903 5.80475C10.5037 5.80475 11.6954 6.99646 11.6954 8.46115C11.6954 9.31839 11.2851 10.1115 10.6044 10.6076Z" fill="white"/>
</svg>
