<svg width={50} height={46} viewBox="0 0 50 46" fill="none" xmlns="http://www.w3.org/2000/svg">
  <path d="M22.7998 0.699951H30.4998V6.39995" stroke="white" strokeWidth="0.6827" strokeMiterlimit={10} />
  <path d="M3.8999 7.09995V0.699951H11.0999" stroke="white" strokeWidth="0.6827" strokeMiterlimit={10} />
  <path d="M11.5999 24.0999H3.8999V18.3999" stroke="white" strokeWidth="0.6827" strokeMiterlimit={10} />
  <path d="M30.4998 17.5999V24.0999H23.2998" stroke="white" strokeWidth="0.6827" strokeMiterlimit={10} />
  <path d="M27.1 30.9001L28.1 39.3C26.3 39.5 24 39.6 21.2 39.7001C17.4 39.8001 13.9 39.7001 13.9 39.7001C6.7 39.4001 1.2 38.4001 1.1 38.4001C0.7 38.4001 0.5 38.1 0.5 37.7001C0.8 30.3001 5.9 27.9001 9.6 26.9001C11.2 26.4001 12.4 25.7 13.1 25.3C14.4 26.3 16 26.8 17.8 26.8C19.5 26.8 21.1 26.2 22.4 25.3C23.1 25.8 24.3 26.3 25.8 26.8C27.7 27.4 29.8 28.2 31.6 29.8H27.9H27.8C27.3 29.8 27 30.3001 27.1 30.9001Z" fill="white" />
  <path d="M33.9001 32.7999C33.9001 32.7999 33.9 32.7 33.8 32.7C33.9 32.7 33.9001 32.7999 33.9001 32.7999Z" fill="white" />
  <path d="M17.7001 25.2C13.4001 25.2 10.4001 20 9.60007 17.9L9.50007 17.7999C9.20007 17.5999 9.00007 17.4999 8.90007 17.2999C7.90007 15.4999 7.60007 14 8.10007 13C8.30007 12.5 8.70007 12.2 9.00007 12C9.00007 11.2 9.10007 9.69995 9.40007 8.19995C9.40007 8.09995 11.0001 2.69995 17.6001 2.69995C24.3001 2.69995 25.8001 8.09995 25.8001 8.19995C26.2001 9.69995 26.2001 11.2 26.2001 12C26.5001 12.2 26.9001 12.5 27.1001 13C27.6001 14.1 27.3001 15.4999 26.3001 17.2999C26.2001 17.4999 26.0001 17.5999 25.7001 17.7999L25.6001 17.9C25.1001 20 22.0001 25.2 17.7001 25.2Z" fill="white" />
  <path d="M38.8999 24.1999C41.0999 24.1999 41.6999 28.2999 41.9999 29.9999H42.9999C42.6999 27.5999 42.0999 23.1999 38.9999 23.0999C35.8999 23.0999 35.1999 27.4999 34.8999 29.9999H35.7999C36.0999 28.2999 36.6999 24.1999 38.8999 24.1999Z" fill="white" />
  <path d="M49.1999 30.7H28.5999C28.2999 30.8 28.2 30.9999 28.2 31.2999L29.5 42.4C30.2 44.4 31.4 45.2999 33.2 45.2999H44.5C46.2 45.2999 47.5 44.4 48.2 42.4L49.5 31.2999C49.6 30.8999 49.4999 30.7 49.1999 30.7ZM34.7999 33.9C34.2999 33.9 34 33.4999 34 33.0999C34 32.5999 34.3999 32.2999 34.7999 32.2999C35.2999 32.2999 35.5999 32.6999 35.5999 33.0999C35.6999 33.4999 35.2999 33.9 34.7999 33.9ZM43 33.9C42.5 33.9 42.2 33.5 42.2 33C42.2 32.5 42.6 32.2 43 32.2C43.4 32.2 43.7999 32.6 43.7999 33C43.7999 33.4 43.5 33.9 43 33.9Z" fill="white" />
</svg>
