<svg width={108} height={29} viewBox="0 0 108 29" fill="none" xmlns="http://www.w3.org/2000/svg">
  <path fillRule="evenodd" clipRule="evenodd" d="M2.22126 0.876067C3.51429 0.384859 5.08842 0.494016 6.15657 1.42185C6.99985 2.0768 7.39339 3.1138 7.7307 4.04163C10.0919 9.71782 12.6217 15.2849 15.0954 20.9065C17.5128 14.5753 19.9864 8.2442 22.5724 1.91306C22.7411 1.47643 22.966 1.09438 23.4157 0.876067C24.2028 0.439437 25.2709 0.712331 25.7769 1.36728C26.1142 1.80391 26.1142 2.40427 25.8893 2.95006C23.0222 10.4273 20.2675 18.0138 17.2879 25.4911C16.9506 26.3643 16.6133 27.2922 15.9386 27.8925C15.3764 28.3838 14.6456 28.6021 13.9148 28.7112H12.959C11.7222 28.6021 10.6541 27.7834 10.1481 26.7464C8.91129 24.3449 7.84314 21.8889 6.71876 19.4328C4.75111 14.9574 2.78345 10.4819 1.04067 5.95189C0.70336 5.02405 0.19739 4.04163 0.422265 3.05922C0.534702 2.02222 1.26555 1.20354 2.22126 0.876067Z" fill="white" />
  <path fillRule="evenodd" clipRule="evenodd" d="M48.5455 7.20772C48.5455 6.06157 49.6699 5.24289 50.738 5.24289C51.6375 5.18831 52.5932 5.67952 52.9868 6.4982C55.0106 10.4824 57.0345 14.4121 59.0022 18.3964C60.6887 14.6304 62.3191 10.8645 63.9494 7.09857C64.1181 6.66194 64.2867 6.22531 64.624 5.89784C65.13 5.35205 65.9171 5.18831 66.6479 5.29747C67.7161 5.40663 68.6156 6.33446 68.6156 7.37146C68.6156 12.2835 68.6156 17.1956 68.6156 22.1077C68.5593 23.2539 67.435 24.1817 66.2544 24.1271C65.0738 24.1817 63.9494 23.1447 63.9494 21.9986C63.9494 18.6693 63.9494 15.3945 63.9494 12.0652C62.7688 14.5759 61.6444 17.0319 60.4638 19.5425C60.0141 20.4704 59.6768 21.5073 58.8335 22.1623C57.9902 22.7627 56.6972 22.5989 55.9101 21.8894C55.5728 21.5619 55.4042 21.1253 55.1793 20.7432C53.6052 17.8506 52.031 14.9033 50.4569 12.0107C50.4569 15.8312 50.4569 19.5971 50.4569 23.4176C50.5131 24.4546 48.5455 24.4546 48.5455 23.4176C48.5455 17.9597 48.5455 12.5564 48.5455 7.20772Z" fill="white" />
  <path fillRule="evenodd" clipRule="evenodd" d="M99.7048 5.67944C100.155 5.24281 100.829 5.18823 101.391 5.18823C101.954 5.18823 102.516 5.29739 102.909 5.67944C103.303 6.06149 103.415 6.60728 103.415 7.15307C103.415 8.29922 103.415 9.44537 103.415 10.5915C104.315 10.6461 105.27 10.4278 106.17 10.8098C106.451 11.1919 106.507 12.0652 105.889 12.1743C105.102 12.338 104.259 12.2289 103.415 12.2835C103.415 14.7395 103.415 17.1956 103.415 19.6516C103.415 20.1974 103.415 20.7977 103.584 21.3435C103.64 21.5618 103.809 21.7802 104.09 21.8347C104.427 21.8347 104.652 21.5618 104.877 21.3981C105.27 21.1252 105.776 20.9069 106.226 21.0706C106.732 21.1798 107.069 21.5618 107.182 21.9985V22.7626C106.901 23.5267 106.058 23.7996 105.383 23.9633C104.034 24.1816 102.628 24.0179 101.504 23.2538C100.155 22.326 99.2551 20.7977 99.2551 19.215C99.2551 16.9227 99.2551 14.6304 99.2551 12.2835C98.7491 12.2835 98.2431 12.2835 97.7372 12.1743C97.1188 12.0106 97.0626 11.1919 97.3999 10.8098C97.9621 10.5369 98.6367 10.6461 99.2551 10.5915C99.2551 9.49995 99.2551 8.3538 99.2551 7.26222C99.1989 6.77102 99.2551 6.11607 99.7048 5.67944Z" fill="white" />
  <path fillRule="evenodd" clipRule="evenodd" d="M26.7884 6.71574C27.4629 6.60659 28.1937 6.60659 28.812 6.8249C29.2617 6.98864 29.6551 7.37069 29.7113 7.80732C29.7675 8.35311 29.7675 9.00805 29.3179 9.3901C28.812 9.82673 28.0812 9.82673 27.4067 9.82673C26.8446 9.82673 26.1701 9.71757 25.7766 9.22636C25.4393 8.78973 25.4393 8.18937 25.5518 7.64358C25.7204 7.15237 26.2263 6.8249 26.7884 6.71574Z" fill="white" />
  <path fillRule="evenodd" clipRule="evenodd" d="M26.7326 10.7546C27.4633 10.5908 28.3627 10.5908 29.0372 10.9729C29.6555 11.3549 29.768 12.119 29.768 12.774C29.768 15.7758 29.768 18.7776 29.768 21.7795C29.768 22.3798 29.7118 23.0348 29.3183 23.4714C28.9248 23.908 28.3627 24.0172 27.8006 24.0172C27.2385 24.0172 26.6202 23.9626 26.1143 23.6351C25.6646 23.2531 25.496 22.7073 25.496 22.1615C25.496 18.8868 25.496 15.6121 25.496 12.3374C25.5522 11.6278 26.0019 10.9183 26.7326 10.7546Z" fill="white" />
  <path fillRule="evenodd" clipRule="evenodd" d="M32.7479 11.1919C33.2539 10.7553 33.9285 10.7007 34.5469 10.7553C35.1091 10.7553 35.6151 11.0282 35.9524 11.4648C36.2335 11.7923 36.2897 12.2289 36.4584 12.5564C37.4703 11.3556 39.1006 10.7553 40.6748 10.7553C42.2489 10.7007 43.8792 11.1373 44.9474 12.338C45.7345 13.3205 45.9031 14.5758 45.9031 15.7765C45.9031 17.3593 45.9031 18.9966 45.9031 20.5794C45.9031 21.3981 46.0155 22.2168 45.7907 23.0355C45.622 23.6358 45.0036 24.0179 44.3852 24.0725C43.7106 24.127 42.9235 24.1816 42.3051 23.745C41.7991 23.3629 41.6867 22.7626 41.6305 22.2168C41.6305 20.1974 41.6305 18.178 41.6305 16.1586C41.6305 15.3399 41.5743 14.4666 41.237 13.6479C41.0683 13.2113 40.6748 12.8838 40.225 12.7747C39.5504 12.5564 38.8195 12.5564 38.2011 12.7747C37.3579 13.0476 36.6832 13.7571 36.5146 14.6303C36.3459 15.3399 36.4021 16.104 36.3459 16.8681C36.3459 18.56 36.3459 20.3065 36.3459 21.9985C36.3459 22.5443 36.2897 23.1446 35.8962 23.5813C35.4464 24.0179 34.828 24.127 34.2096 24.127C33.6474 24.127 33.029 24.0179 32.6355 23.6358C32.242 23.2538 32.1295 22.708 32.1295 22.2168C32.1295 19.0512 32.1295 15.8857 32.1295 12.7747C32.1857 12.1743 32.2982 11.5739 32.7479 11.1919Z" fill="white" />
  <path fillRule="evenodd" clipRule="evenodd" d="M74.7996 10.973C76.8235 10.6455 78.9598 10.5909 80.9274 11.1913C81.9956 11.5733 83.0637 12.1191 83.6259 13.1015C84.1881 14.084 84.2443 15.2301 84.2443 16.3217C84.2443 18.1228 84.3005 19.9785 84.2443 21.7796C84.2443 22.2708 83.9632 22.762 83.6259 23.0894C82.7826 23.9081 81.2085 23.799 80.5339 22.8166C80.309 22.4891 80.1966 22.107 80.0279 21.725C79.5219 22.6528 78.7349 23.4169 77.6667 23.7444C76.4861 24.1264 75.1931 24.1264 74.0125 23.8535C72.7195 23.5261 71.4827 22.6528 71.0329 21.3429C70.6956 20.3605 70.7518 19.2144 71.2578 18.2865C71.8762 17.3041 72.8881 16.5946 73.9563 16.2125C75.8677 15.503 77.9478 15.3938 79.9155 15.3938C79.9717 14.5752 79.803 13.7019 79.2409 12.9924C78.5662 12.1191 77.2732 11.8462 76.205 12.1737C75.5304 12.4466 75.0244 13.047 74.406 13.429C73.7314 13.9202 72.7195 13.9202 72.0449 13.429C71.5389 12.9924 71.7076 12.1191 72.2697 11.7917C73.113 11.4096 73.9563 11.1367 74.7996 10.973ZM76.5424 17.5224C75.2493 18.2865 74.7996 20.1422 75.5304 21.3975C75.9239 22.0525 76.711 22.4345 77.4981 22.2708C78.4538 22.1616 79.2409 21.4521 79.6906 20.6334C80.3652 19.4327 80.1404 18.0136 80.1966 16.7037C78.9035 16.6492 77.6105 16.8129 76.5424 17.5224Z" fill="white" />
  <path fillRule="evenodd" clipRule="evenodd" d="M86.999 12.7196C86.999 11.7372 87.8423 10.8094 88.8543 10.7548C89.4727 10.7002 90.1473 10.8094 90.5408 11.3006C90.9906 11.7372 90.9906 12.3921 91.103 12.9379C91.7214 12.2284 92.2274 11.4097 93.1269 11.0277C93.914 10.6456 94.9821 10.591 95.6567 11.1914C96.3314 11.7918 96.3314 12.8833 95.8816 13.5929C95.713 13.8658 95.4319 14.1387 95.0383 14.1387C94.3075 14.1932 93.6891 13.8112 93.0145 13.8112C92.3961 13.8112 91.9463 14.2478 91.6652 14.739C91.1592 15.5031 91.0468 16.431 90.9906 17.3588C90.9906 18.9416 90.9906 20.4698 90.9906 22.0526C90.9906 22.5984 90.8219 23.1441 90.4284 23.4716C89.6975 24.2357 88.3483 24.2357 87.6174 23.5808C87.1677 23.1987 86.9428 22.6529 86.9428 22.0526C86.999 18.9416 86.999 15.8306 86.999 12.7196Z" fill="white" />
</svg>

