<svg width={35} height={31} viewBox="0 0 35 31" fill="none" xmlns="http://www.w3.org/2000/svg">
  <path fillRule="evenodd" clipRule="evenodd" d="M23.8141 0H24.6795C25.2564 0.158002 25.8013 0.410805 26.1538 0.853211C26.6987 1.45362 26.859 2.27523 26.6987 3.03364C26.3462 4.70846 26.0256 6.38328 25.6731 8.0897C25.5769 8.65851 25.3846 9.19572 25.4487 9.76453C25.4808 10.1121 25.6731 10.4913 26.0577 10.5861C26.7308 10.7757 27.5 10.6177 28.109 11.0285C28.3974 11.1865 28.4936 11.5341 28.3974 11.8186C28.2372 12.103 27.8846 12.2294 27.5641 12.3242C25.7372 12.9246 23.8782 13.525 22.0513 14.0938C21.2821 14.3466 20.3846 14.0306 19.9679 13.3986C19.6474 12.9562 19.5513 12.3874 19.6795 11.8502C20.3846 8.53211 21.0256 5.21407 21.6987 1.92762C21.891 0.948012 22.7885 0.158002 23.8141 0Z" fill="#FFE800" />
  <path fillRule="evenodd" clipRule="evenodd" d="M8.52566 0.948027C9.32694 0.726824 10.2564 0.916427 10.8975 1.45363C12.468 2.78085 14.0385 4.10807 15.5769 5.46688C16.0257 5.84609 16.6667 6.2885 17.2436 5.97249C17.7244 5.59329 17.9808 4.99288 18.4295 4.58207C18.6859 4.29767 19.1667 4.17127 19.4872 4.39247C19.7757 4.64527 19.7116 5.05608 19.6475 5.40368C19.2949 7.29971 18.9103 9.16413 18.4936 11.0286C18.3013 11.8818 17.4359 12.4822 16.5705 12.3874C15.9616 12.3874 15.4808 12.0398 15.0641 11.629C12.5641 9.48013 10.0641 7.36291 7.56412 5.24568C6.95514 4.74008 6.60258 3.98167 6.66668 3.19166C6.69873 2.18044 7.50002 1.23243 8.52566 0.948027Z" fill="#FFE800" />
  <path fillRule="evenodd" clipRule="evenodd" d="M8.20514 8.87967C8.20514 8.56367 8.4295 8.27927 8.71797 8.21606C9.10258 8.21606 9.42309 8.46887 9.6795 8.72167C11.1218 9.98569 12.5962 11.2497 14.0385 12.5137C15 13.3985 14.4872 15.105 13.2692 15.4842C10.2885 16.4638 7.27566 17.475 4.29489 18.4546C3.58976 18.7074 2.82053 19.0234 2.0513 18.8654C0.993605 18.7074 0.160272 17.8542 -0.0640869 16.843V16.0214C0.0961695 15.1682 0.705144 14.3781 1.53848 14.0937C3.62181 13.3669 5.70514 12.7033 7.78848 12.0081C8.3013 11.8185 8.87822 11.4393 8.78207 10.8389C8.68591 10.1437 8.20514 9.57488 8.20514 8.87967Z" fill="#FFE800" />
  <path fillRule="evenodd" clipRule="evenodd" d="M31.7308 12.2608C32.5321 12.0396 33.4295 12.1976 34.0705 12.7348C34.8077 13.3037 35.1603 14.3149 34.9359 15.2313C34.7436 16.0845 34.0385 16.8113 33.2051 17.0641C31.218 17.6961 29.2308 18.3281 27.2436 18.9917C26.7308 19.1497 26.1539 19.4657 26.0898 20.0661C26.1539 20.793 26.7949 21.3934 26.7628 22.1202C26.7949 22.4362 26.5705 22.7522 26.218 22.8154C25.8334 22.8154 25.5128 22.531 25.2564 22.3098C23.8141 21.0458 22.3077 19.7817 20.8654 18.5177C20 17.6329 20.4167 16.0213 21.5705 15.6105C24.968 14.5045 28.3334 13.3669 31.7308 12.2608Z" fill="#FFE800" />
  <path fillRule="evenodd" clipRule="evenodd" d="M12.8847 16.9377C13.3975 16.7481 14.0064 16.8113 14.4872 17.0957C15.1603 17.5065 15.5129 18.3597 15.3206 19.1182C14.6154 22.4362 13.9744 25.7542 13.3013 29.0723C13.109 30.0203 12.3077 30.7787 11.3782 30.9999H10.2564C8.9744 30.7471 8.04491 29.4515 8.30132 28.1559C8.68594 26.1018 9.13465 24.0478 9.55132 21.9938C9.67953 21.4566 9.64748 20.7614 9.13465 20.477C8.46158 20.2242 7.66029 20.3822 6.98722 20.0346C6.69876 19.8766 6.50645 19.4974 6.66671 19.1814C6.82696 18.9286 7.11542 18.8338 7.37183 18.7389C9.19876 18.1385 11.0577 17.5381 12.8847 16.9377Z" fill="#FFE800" />
  <path fillRule="evenodd" clipRule="evenodd" d="M17.6603 18.7391C18.3013 18.5495 19.0385 18.6443 19.5192 19.0867C22.1474 21.3303 24.8077 23.5739 27.4359 25.8176C28.0449 26.3232 28.3654 27.1448 28.3013 27.9348C28.2051 28.7564 27.6923 29.5148 26.9231 29.894C26.0257 30.368 24.8077 30.2416 24.0385 29.5464C22.4359 28.1876 20.8654 26.8288 19.2628 25.5016C18.9103 25.2171 18.4616 24.9011 17.9808 24.9643C17.468 25.0591 17.2436 25.628 16.9231 25.9756C16.6026 26.3548 16.1859 26.8604 15.641 26.734C15.1923 26.6392 15.1603 26.102 15.2564 25.7544C15.6731 23.8583 16.0577 21.9623 16.4423 20.0663C16.5705 19.4343 17.0513 18.9287 17.6603 18.7391Z" fill="#FFE800" />
</svg>

