<svg width="28" height="28" viewBox="0 0 28 28" fill="none" xmlns="http://www.w3.org/2000/svg">
<path d="M19.8358 10.2677C19.8358 8.78226 19.2457 7.35763 18.1953 6.30724C17.1449 5.25685 15.7203 4.66675 14.2348 4.66675C12.7493 4.66675 11.3247 5.25685 10.2743 6.30724C9.22391 7.35763 8.63381 8.78226 8.63381 10.2677C8.63381 16.8022 5.83331 18.6692 5.83331 18.6692H22.6363C22.6363 18.6692 19.8358 16.8022 19.8358 10.2677Z" stroke="#423637" stroke-width="1.5" stroke-linecap="round" stroke-linejoin="round"/>
<path d="M15.8498 22.4033C15.6857 22.6862 15.4501 22.9211 15.1667 23.0843C14.8832 23.2476 14.5619 23.3335 14.2348 23.3335C13.9077 23.3335 13.5864 23.2476 13.303 23.0843C13.0196 22.9211 12.784 22.6862 12.6199 22.4033" stroke="#423637" stroke-width="1.5" stroke-linecap="round" stroke-linejoin="round"/>
</svg>
