<svg width={24} height={24} viewBox="0 0 24 24" fill="none" xmlns="http://www.w3.org/2000/svg">
  <path d="M11.8633 0C5.31793 0 4.75874e-05 5.3179 4.75874e-05 11.8632C-0.00407502 12.1547 0.260285 12.4236 0.551826 12.4236C0.843366 12.4236 1.10773 12.1547 1.1036 11.8632C1.1036 5.9143 5.91434 1.10356 11.8633 1.10356C17.8122 1.10356 22.6229 5.9143 22.6229 11.8632C22.6229 17.8122 17.8122 22.6229 11.8633 22.6229C9.24503 22.6229 6.76489 21.431 4.86259 19.7692L7.75942 19.5795C7.83688 19.5831 7.91422 19.5703 7.9864 19.542C8.05859 19.5137 8.12399 19.4705 8.17836 19.4152C8.23273 19.3599 8.27483 19.2938 8.30193 19.2211C8.32903 19.1485 8.34052 19.0709 8.33565 18.9936C8.33077 18.9162 8.30964 18.8407 8.27364 18.772C8.23764 18.7033 8.18757 18.643 8.12669 18.595C8.06582 18.547 7.99551 18.5123 7.92034 18.4933C7.84518 18.4743 7.76685 18.4713 7.69045 18.4846L3.55212 18.7605C3.47374 18.7652 3.39728 18.7866 3.32784 18.8232C3.25839 18.8598 3.19756 18.9109 3.14942 18.9729C3.10127 19.0349 3.06691 19.1065 3.04864 19.1829C3.03036 19.2592 3.02859 19.3386 3.04345 19.4157L3.87111 23.554C3.8997 23.6981 3.98433 23.8249 4.10641 23.9065C4.22848 23.9882 4.37799 24.018 4.52204 23.9894C4.66609 23.9608 4.79289 23.8762 4.87454 23.7541C4.9562 23.632 4.98601 23.4825 4.95743 23.3385L4.466 20.8813C6.4872 22.5463 9.0676 23.7265 11.8633 23.7265C18.4086 23.7265 23.7265 18.4086 23.7265 11.8632C23.7265 5.3179 18.4086 0 11.8633 0ZM9.88032 4.13834C9.74313 4.15127 9.61574 4.21506 9.5232 4.31717C9.43066 4.41928 9.37968 4.55231 9.38027 4.69011V6.31958C8.99521 6.48835 8.63973 6.70044 8.30258 6.94033L6.88865 6.12129C6.76165 6.0497 6.61148 6.03128 6.47094 6.07005C6.3304 6.10882 6.21091 6.20163 6.13858 6.3282L4.20735 9.67336C4.13505 9.79932 4.11532 9.94871 4.15244 10.0891C4.18956 10.2295 4.28054 10.3497 4.40565 10.4234L5.78509 11.2166C5.76065 11.4303 5.72474 11.6396 5.72474 11.8632C5.72474 12.0839 5.76125 12.2903 5.78509 12.5012L4.40565 13.2944C4.34255 13.3309 4.28732 13.3796 4.24314 13.4376C4.19897 13.4957 4.16673 13.5619 4.14829 13.6324C4.12986 13.7029 4.12558 13.7765 4.13572 13.8487C4.14586 13.9209 4.1702 13.9904 4.20735 14.0531L6.13858 17.3983C6.21235 17.5234 6.33247 17.6143 6.47288 17.6515C6.6133 17.6886 6.76269 17.6689 6.88865 17.5965L8.29396 16.7861C8.63297 17.028 8.99315 17.2373 9.38027 17.4069V19.0363C9.38029 19.1827 9.43843 19.323 9.5419 19.4265C9.64538 19.53 9.78571 19.5881 9.93205 19.5881H13.7945C13.9408 19.5881 14.0812 19.53 14.1846 19.4265C14.2881 19.323 14.3463 19.1827 14.3463 19.0363V17.3379C14.7062 17.1688 15.0479 16.9752 15.3636 16.743L16.8379 17.5965C16.9639 17.6689 17.1132 17.6886 17.2537 17.6515C17.3941 17.6143 17.5142 17.5234 17.588 17.3983L19.5192 14.0531C19.5563 13.9904 19.5807 13.9209 19.5908 13.8487C19.601 13.7765 19.5967 13.7029 19.5783 13.6324C19.5598 13.5619 19.5276 13.4957 19.4834 13.4376C19.4392 13.3796 19.384 13.3309 19.3209 13.2944L17.8208 12.4236C17.8382 12.2373 17.8639 12.0538 17.8639 11.8632C17.8639 11.6698 17.8387 11.4833 17.8208 11.2942L19.3209 10.4234C19.446 10.3497 19.537 10.2295 19.5741 10.0891C19.6112 9.94871 19.5915 9.79932 19.5192 9.67336L17.588 6.3282C17.5156 6.20163 17.3961 6.10882 17.2556 6.07005C17.1151 6.03128 16.9649 6.0497 16.8379 6.12129L15.355 6.98344C15.0411 6.75366 14.7037 6.55642 14.3463 6.38856V4.69011C14.3463 4.54378 14.2881 4.40344 14.1846 4.29996C14.0812 4.19649 13.9408 4.13835 13.7945 4.13834H9.93205C9.91482 4.13753 9.89756 4.13753 9.88032 4.13834ZM10.4838 5.24189H13.2427V6.73342C13.244 6.84384 13.2783 6.95134 13.3414 7.04203C13.4044 7.13271 13.4931 7.2024 13.5962 7.24209C14.0981 7.43796 14.5555 7.71907 14.967 8.06113C15.054 8.13312 15.161 8.17667 15.2736 8.18592C15.3861 8.19517 15.4988 8.16967 15.5964 8.11286L16.9155 7.35417L18.2949 9.74233L16.9672 10.5096C16.87 10.566 16.7924 10.6507 16.7446 10.7524C16.6969 10.8541 16.6813 10.9679 16.7 11.0787C16.7404 11.3332 16.7603 11.5978 16.7603 11.8632C16.7603 12.1286 16.7404 12.3929 16.7 12.6478C16.6831 12.7572 16.6996 12.8692 16.7473 12.9691C16.795 13.0691 16.8716 13.1524 16.9672 13.2082L18.2949 13.9755L16.9155 16.3637L15.605 15.605C15.5066 15.5493 15.3934 15.5253 15.2808 15.5361C15.1683 15.5469 15.0617 15.592 14.9756 15.6653C14.5622 16.0114 14.1015 16.2872 13.5962 16.4844C13.4918 16.5246 13.4021 16.5956 13.3389 16.688C13.2758 16.7804 13.2422 16.8898 13.2427 17.0017V18.4846H10.4838V17.0534C10.4854 16.939 10.4514 16.827 10.3866 16.7327C10.3217 16.6385 10.2291 16.5668 10.1217 16.5275C9.59191 16.3369 9.09702 16.0595 8.66469 15.7084C8.57846 15.6383 8.47307 15.5958 8.36231 15.5866C8.25154 15.5774 8.14058 15.6018 8.04394 15.6567L6.81106 16.3637L5.43161 13.9755L6.63863 13.2858C6.7358 13.2294 6.81345 13.1447 6.86121 13.043C6.90897 12.9414 6.92456 12.8275 6.90589 12.7168C6.85673 12.4342 6.8283 12.1498 6.8283 11.8632C6.8283 11.5767 6.85676 11.2918 6.90589 11.0097C6.92644 10.8976 6.91179 10.7819 6.86393 10.6785C6.81607 10.575 6.73737 10.489 6.63863 10.4321L5.43161 9.74233L6.81106 7.35417L8.04394 8.06975C8.14058 8.12465 8.25154 8.14908 8.36231 8.13985C8.47307 8.13062 8.57846 8.08816 8.66469 8.01802C9.09812 7.66658 9.59101 7.38989 10.1217 7.19898C10.2278 7.16016 10.3193 7.08974 10.3841 6.99724C10.4488 6.90474 10.4836 6.7946 10.4838 6.68169V5.24189ZM11.8633 8.55256C10.0414 8.55256 8.55261 10.0413 8.55261 11.8632C8.55261 13.6851 10.0414 15.1739 11.8633 15.1739C13.6852 15.1739 15.1739 13.6851 15.1739 11.8632C15.1739 10.0413 13.6852 8.55256 11.8633 8.55256ZM11.8633 9.65612C13.0888 9.65612 14.0704 10.6377 14.0704 11.8632C14.0704 13.0887 13.0888 14.0703 11.8633 14.0703C10.6378 14.0703 9.65616 13.0887 9.65616 11.8632C9.65616 10.6377 10.6378 9.65612 11.8633 9.65612Z" fill="#ED1C24" />
</svg>
